# Blender v2.93.1 OBJ File: 'lindahlium.blend'
# www.blender.org
mtllib lindahlium.mtl
o Cone
v -0.000000 -0.001126 1.886148
v -1.633452 -0.001126 -0.943074
v 1.633452 -0.001126 -0.943074
v -0.000000 2.079706 -0.000000
vt 0.809247 0.288968
vt 0.649520 1.031483
vt 0.205136 0.287192
vt 0.297638 0.367086
vt 0.817449 0.377008
vt 0.605165 0.932535
vt 0.879384 0.327685
vt 0.555244 1.081777
vt 0.235132 0.354533
vt 0.800192 0.278822
vt 0.580296 1.066082
vt 0.293882 0.288855
vn -0.7888 0.4128 0.4554
vn 0.0000 -1.0000 -0.0000
vn 0.0000 0.4128 -0.9108
vn 0.7888 0.4128 0.4554
usemtl Material
s off
f 1/1/1 4/2/1 2/3/1
f 1/4/2 2/5/2 3/6/2
f 2/7/3 4/8/3 3/9/3
f 3/10/4 4/11/4 1/12/4
